<svg xmlns="http://www.w3.org/2000/svg" viewBox="0 0 476.31 115.5"><title>astrazeneca-logo</title><path d="M88,498.17l7.84-21.29,7.47,21.29Zm22.93,21.45h7.19L99.43,468.38H92.32L72.81,519.62h7.25l5.73-15.71h19.53ZM145,508.77c0,4.18-3.39,6.4-9.18,6.4-4.67,0-7.81-1.31-9.55-4.33L119.36,512c2.69,5.51,8.29,8.14,16.18,8.14,10.71,0,16.3-5.93,16.3-12.24,0-8.12-7.48-10.32-16.09-12.06-4.15-.83-9-2.37-9-6.06,0-2.62,2.56-5.66,7.69-5.66s8.37,3.56,8.85,5l6.07-2.53c-2.78-5.3-8.35-7.47-14.18-7.47-9,0-15,4.44-15,11.5,0,8,6.88,9.61,13.54,11,5.73,1.23,11.29,2.64,11.29,7.06m21.19-40.39-6.74,2.81v9.46h-6.18v5.45h6.18v25c-.09,5.09-.09,8.76,7.48,8.76a44.33,44.33,0,0,0,6.33-.65v-5.4a16.61,16.61,0,0,1-4.28.9c-2.8,0-2.8-2-2.8-6.56V486.1h7.08v-5.45h-7.08Zm13,12.28v39h6.53V501.7c0-3.34-.09-7.3,1.65-10.12,2.12-3.45,5.27-4.77,11.68-4.81V480c-2.63.09-9.62.25-13.33,7.6v-7Zm58.55-12.26v6.31h29.12L237.71,513v6.66h37.64v-6.15H245.62l29-38.69v-6.39Zm78.59,12.26v39h6.54v-22.1c0-2.89,0-5.84,2.89-8.72a10.07,10.07,0,0,1,7.44-3c3.55,0,7.2,1.64,8.35,5.34.42,1.31.42,2.46.42,6.41v22h6.52V496.53c0-3.29,0-5.67-.67-8-1.89-6.42-7.83-8.91-12.8-8.91a13.7,13.7,0,0,0-12.14,6.94v-5.93Zm101.55,29.54c-1.37,2.67-3.94,5.09-9,5.09-4.4,0-11.78-2.77-11.78-15.61,0-3.46.62-15.7,11.37-15.7,5.43,0,7.92,3,9.08,5.51l6.13-2.56c-3.78-6.28-10.58-7.75-15.45-7.75-12.4,0-18.4,10-18.4,21,0,9.53,5.2,20.14,19,20.14,8,0,12.42-3.85,14.85-7.69Zm-133.12-14.1H305.4c-.58-10.19-6.45-11.91-10.37-11.91-5.59,0-9.55,4.1-10.28,11.91m26,16.07c-2.23,3.8-6.53,8.14-15,8.14-11.51,0-18.13-7.81-18.13-20.92,0-14.63,9.66-20.23,17.87-20.23,7.14,0,14,4,16.3,13.73a35.44,35.44,0,0,1,.73,7.9h-28c-.17,6.51,2.56,14.75,11.76,14.59a9.26,9.26,0,0,0,8.09-4.44Zm48.29-16.07h20.65c-.58-10.19-6.45-11.91-10.37-11.91-5.59,0-9.55,4.1-10.28,11.91m26,16.07c-2.23,3.8-6.53,8.14-15,8.14-11.5,0-18.1-7.81-18.1-20.92,0-14.63,9.65-20.23,17.86-20.23,7.15,0,14,4,16.3,13.73a35.29,35.29,0,0,1,.74,7.9h-28c-.16,6.51,2.57,14.75,11.77,14.59a9.25,9.25,0,0,0,8.08-4.44Zm74.28,7.46-6.81,0a44.45,44.45,0,0,1-.77-5.74c-2,2-5.63,6.29-13,6.29-7.57,0-13.18-4.5-13.18-11.07a10.57,10.57,0,0,1,1.73-5.85c2.23-3.29,6.36-5.93,17.95-6.84l6.17-.49v-1c0-4,0-10.78-8.69-10.78-5.46,0-7.33,2.65-8,5l-6-2.52a6,6,0,0,1,.32-.63c2.31-4.27,6.85-6.91,13.41-6.91,3.61,0,8.28.91,11.33,3.29,4.33,3.29,4.22,9.77,4.22,9.77l.27,20s.22,5.8,1.07,7.43m-8.94-10.74c1-2.15,1.06-3,1.06-8.73-2.54.41-6,.91-10.2,1.8-7.23,1.57-8.47,4.29-8.47,7,0,3.13,2.47,5.77,7.32,5.77,4.53,0,8.39-1.82,10.28-5.86M233.1,519.62l-6.8,0a44.12,44.12,0,0,1-.78-5.74c-2,2-5.65,6.29-13,6.29-7.57,0-13.2-4.5-13.2-11.07a10.57,10.57,0,0,1,1.73-5.85c2.23-3.29,6.37-5.93,18-6.84l6.16-.49v-1c0-4,0-10.78-8.68-10.78-5.47,0-7.32,2.65-8,5l-6-2.52c.1-.21.21-.43.32-.63,2.32-4.27,6.85-6.91,13.42-6.91,3.6,0,8.27.91,11.32,3.29,4.33,3.29,4.24,9.77,4.24,9.77l.25,20s.24,5.8,1.07,7.43m-8.95-10.74c1-2.15,1.07-3,1.07-8.73-2.55.41-6,.91-10.2,1.8-7.24,1.57-8.48,4.29-8.48,7,0,3.13,2.47,5.77,7.33,5.77,4.52,0,8.39-1.82,10.27-5.86" transform="translate(-72.81 -405.5)" style="fill:#8e0b56"/><path d="M502,486.82c-1,.65-2,1.29-3,2-11.74-6.52-37-19.09-39.15-20.23-2.34-1.21-6.42-2.85-5.91-6.74.72-5.45,10.18-17.39,14.2-22.29,21.76-26.61,31.5-34.82,38-34,6.89.9,10.72,8,11.18,41.38-3.84-1.19-8.09-2.41-12.61-3.54-.37-4.85-1.27-12.16-1.62-14.69-.39-2.85-.94-3.93-2.09-4.09-1.3-.17-4.47,2.88-7.35,5.83-1.31,1.34-5,5.08-9.09,9.19-3.41-.22-5.69.49-6.95,2.15-1,1.34-1.23,3.18-.62,5.48l-5.3,5.3c-4.54,4.53-9.33,8.27-9.58,10.11-.2,1.5,2.1,3.05,5.37,5,8,4.77,27.65,15.4,34.61,19.14m30.53-33.3c-7.67-2.67-26.65-9.74-46.67-12.37-6.88-.9-9.66,1.54-6.82,8.1s10,17.33,17.64,25.47,15.83,10.33,18.44-2.21c.1-.45.19-.89.27-1.33a88.1,88.1,0,0,0,1.35-9.09c-3.37-1.53-7.14-3.16-10.92-4.75.21,2.88.55,7.84.72,11.66,0,.49,0,1,.05,1.42.23,6.19-1.88,6.17-5.4,3.64-4.1-2.93-16.66-19.53-18.1-26.85-.06-.48.16-.5.41-.42l.31.13h0c2.83,1.12,12.28,4.84,21.87,8.88,3.83,1.61,7.67,3.27,11.13,4.84s6.43,3,8.7,4.18c4.14,2.22,5.75,3.73,4,5.5-8.64,8.76-38.76,21.22-49.16,36.63l-.11.15a5.29,5.29,0,0,0-.34.54c0,.06-.05.12-.09.18a13.41,13.41,0,0,0-1.5,4.58c-.44,3.36,1.31,6.44,6.14,7.75a22.55,22.55,0,0,0,4.1.77c.26,0,.56,0,.85.05,9.29.45,33.4-4.83,40.74-8.09,7.58-3.37,5.32-6.72,3.12-8.46-1.64-1.31-10.09-6-14.18-8.28l-3,1.95a116.19,116.19,0,0,1,11.36,7.62c.62.49.28,1.07-.65,1.14l-.74.05c-6.62.46-19.15,1.34-25,1.65-.86.06-1.84.1-2.37.12a39,39,0,0,1,3.91-3.18c12.58-8.85,33.56-21.29,39.74-26.64,4.55-3.94,17-16-9.75-25.33" transform="translate(-72.81 -405.5)" style="fill:#f9b000"/></svg>