<svg xmlns="http://www.w3.org/2000/svg" viewBox="0 0 176.6 40.91"><title>Moderna logo</title><path d="M592,530.36h-2.57c-.6,0-.92.36-.92,1.06s.32,1,.92,1h9.93c.63,0,1-.36,1-1s-.32-1.06-1-1.06H592Z" transform="translate(-423.7 -491.54)" style="fill:#28abe2;fill-rule:evenodd"/><path d="M577.18,530.36h-2.59c-.59,0-.94.36-.94,1.06s.35,1,.94,1h9.93c.62,0,.93-.36.93-1s-.32-1.06-.93-1.06h-7.34Z" transform="translate(-423.7 -491.54)" style="fill:#40b3e3;fill-rule:evenodd"/><path d="M562.3,530.36h-2.57c-.63,0-.92.36-.92,1.06s.29,1,.92,1h9.93c.63,0,1-.36,1-1s-.32-1.06-1-1.06H562.3Z" transform="translate(-423.7 -491.54)" style="fill:#4eb8e6;fill-rule:evenodd"/><path d="M547,530.36h-2.62c-.65,0-1,.36-1,1.06s.32,1,1,1h10.05c.65,0,1-.36,1-1s-.32-1.06-1-1.06Z" transform="translate(-423.7 -491.54)" style="fill:#58bde9;fill-rule:evenodd"/><path d="M532.27,530.36H529.7c-.63,0-1,.36-1,1.06s.32,1,1,1h9.9c.63,0,1-.36,1-1s-.32-1.06-1-1.06Z" transform="translate(-423.7 -491.54)" style="fill:#65c2ea;fill-rule:evenodd"/><path d="M517.23,530.36h-2.57c-.63,0-1,.36-1,1.06s.32,1,1,1h9.9c.63,0,1-.36,1-1s-.32-1.06-1-1.06Z" transform="translate(-423.7 -491.54)" style="fill:#72c6ea;fill-rule:evenodd"/><path d="M502,530.36h-2.57c-.63,0-1,.36-1,1.06s.32,1,1,1h9.9c.67,0,1-.36,1-1s-.28-1.06-1-1.06H502Z" transform="translate(-423.7 -491.54)" style="fill:#80ccec;fill-rule:evenodd"/><path d="M487.17,530.36H484.6c-.63,0-1,.36-1,1.06s.32,1,1,1h9.93c.6,0,.92-.36.92-1s-.32-1.06-.92-1.06h-7.36Z" transform="translate(-423.7 -491.54)" style="fill:#8bd0ee;fill-rule:evenodd"/><path d="M472.32,530.36h-2.57c-.63,0-1,.36-1,1.06s.32,1,1,1h9.9c.63,0,1-.36,1-1s-.32-1.06-1-1.06h-7.33Z" transform="translate(-423.7 -491.54)" style="fill:#98d6ef;fill-rule:evenodd"/><path d="M457.07,530.36h-2.54c-.63,0-1,.36-1,1.06s.32,1,1,1h9.9c.63,0,1-.36,1-1s-.32-1.06-1-1.06h-7.36Z" transform="translate(-423.7 -491.54)" style="fill:#a5dcf3;fill-rule:evenodd"/><path d="M442.11,530.36H439.5c-.63,0-1,.36-1,1.06s.32,1,1,1h10.09c.63,0,1-.36,1-1s-.32-1.06-1-1.06h-7.47Z" transform="translate(-423.7 -491.54)" style="fill:#b2e1f4;fill-rule:evenodd"/><path d="M427.25,530.36h-2.62c-.65,0-.93.36-.93,1.06s.28,1,.93,1h10.09c.65,0,1-.36,1-1s-.32-1.06-1-1.06h-7.47Z" transform="translate(-423.7 -491.54)" style="fill:#bfe6f5;fill-rule:evenodd"/><path d="M423.89,499.7h2.76v3.74a10.36,10.36,0,0,1,2.95-3,8.28,8.28,0,0,1,4.38-1.28,7.46,7.46,0,0,1,3,.61,6,6,0,0,1,2.27,1.65,8.72,8.72,0,0,1,1.52,2.9,10.7,10.7,0,0,1,3.44-3.85,8.12,8.12,0,0,1,4.42-1.3,6.73,6.73,0,0,1,6.45,4.29,16.67,16.67,0,0,1,.81,6v11.76h-2.79V509.47a15.77,15.77,0,0,0-.49-4.75,4.29,4.29,0,0,0-1.7-2.09,5,5,0,0,0-2.82-.78A6.28,6.28,0,0,0,444.4,503a6.87,6.87,0,0,0-2.41,3.16,20.81,20.81,0,0,0-.76,6.6v8.43h-2.76v-11a19.45,19.45,0,0,0-.46-5.3,4.51,4.51,0,0,0-1.7-2.23,5,5,0,0,0-2.85-.84,6.09,6.09,0,0,0-3.57,1.16,7,7,0,0,0-2.46,3.1,17.55,17.55,0,0,0-.78,6v9.13h-2.76Z" transform="translate(-423.7 -491.54)" style="fill:#e21d38;fill-rule:evenodd"/><path d="M471.67,499.15h0a10.72,10.72,0,0,1,8.23,3.6,11.52,11.52,0,0,1-.17,15.66,11.3,11.3,0,0,1-16.14,0,11.49,11.49,0,0,1-.17-15.63,10.67,10.67,0,0,1,8.26-3.62m0,2.73h0a8,8,0,0,0-5.95,2.55,8.49,8.49,0,0,0-2.49,6.18,8.94,8.94,0,0,0,1.13,4.35,8,8,0,0,0,3.08,3.1,8.62,8.62,0,0,0,8.44,0A8,8,0,0,0,479,515a8.94,8.94,0,0,0,1.13-4.35,8.49,8.49,0,0,0-2.49-6.18,8,8,0,0,0-5.92-2.55" transform="translate(-423.7 -491.54)" style="fill:#e21d38;fill-rule:evenodd"/><path d="M509.15,491.54h0v29.71h-2.71v-3.7a11.88,11.88,0,0,1-3.85,3.18,10.83,10.83,0,0,1-4.73,1.07,10.36,10.36,0,0,1-7.76-3.32,11.12,11.12,0,0,1-3.22-8,10.94,10.94,0,0,1,3.25-7.92,10.54,10.54,0,0,1,7.8-3.3,10,10,0,0,1,4.76,1.13,10.57,10.57,0,0,1,3.74,3.38v-12.2Zm-11,10.35h0a8.18,8.18,0,0,0-7.34,4.33,8.64,8.64,0,0,0,0,8.64,8.55,8.55,0,0,0,3.11,3.24,8.4,8.4,0,0,0,4.2,1.16,8.8,8.8,0,0,0,4.3-1.16,8.22,8.22,0,0,0,3.11-3.09,9,9,0,0,0,1.06-4.39,8.47,8.47,0,0,0-2.44-6.21,8,8,0,0,0-6-2.51" transform="translate(-423.7 -491.54)" style="fill:#e21d38;fill-rule:evenodd"/><path d="M533.33,514.09h0l2.32,1.25A13.31,13.31,0,0,1,533,519a10.72,10.72,0,0,1-3.36,2.12,12.17,12.17,0,0,1-4.25.73,10.24,10.24,0,0,1-8.18-3.45,11.78,11.78,0,0,1-2.93-7.8,11.47,11.47,0,0,1,2.47-7.31,10.26,10.26,0,0,1,8.5-4.09,10.56,10.56,0,0,1,8.74,4.18,11.69,11.69,0,0,1,2.36,7.37H517.11a8.77,8.77,0,0,0,2.4,6.15,7.56,7.56,0,0,0,5.68,2.41,9.19,9.19,0,0,0,3.17-.58,8.47,8.47,0,0,0,2.62-1.51,12.31,12.31,0,0,0,2.36-3.07m0-5.8h0a9.32,9.32,0,0,0-1.62-3.54,7.1,7.1,0,0,0-2.79-2.12,8.33,8.33,0,0,0-3.63-.81,7.81,7.81,0,0,0-5.41,2,9.34,9.34,0,0,0-2.52,4.44Z" transform="translate(-423.7 -491.54)" style="fill:#e21d38;fill-rule:evenodd"/><path d="M540.54,499.7h2.76v3.16a9.63,9.63,0,0,1,2.62-2.78,5.18,5.18,0,0,1,2.87-.93,5.11,5.11,0,0,1,2.41.73l-1.43,2.34a3.49,3.49,0,0,0-1.41-.38,3.84,3.84,0,0,0-2.62,1.13,7.28,7.28,0,0,0-1.93,3.53,34.69,34.69,0,0,0-.51,7.45v7.27h-2.76Z" transform="translate(-423.7 -491.54)" style="fill:#e21d38;fill-rule:evenodd"/><path d="M554.44,499.7h2.74v3.85a11.38,11.38,0,0,1,3.66-3.3,8.94,8.94,0,0,1,4.34-1.1,7.39,7.39,0,0,1,7,4.52,17.33,17.33,0,0,1,.89,6.49v11.07h-2.74V511a25.26,25.26,0,0,0-.32-5,5.42,5.42,0,0,0-1.84-3.22,5.63,5.63,0,0,0-3.55-1.07,6.81,6.81,0,0,0-4.46,1.65,7.78,7.78,0,0,0-2.6,4.11,29.52,29.52,0,0,0-.4,5.85v7.91h-2.74Z" transform="translate(-423.7 -491.54)" style="fill:#e21d38;fill-rule:evenodd"/><path d="M600.11,499.71h0v21.54h-2.68v-3.71a11.85,11.85,0,0,1-3.84,3.19,10.59,10.59,0,0,1-4.68,1.07,10.16,10.16,0,0,1-7.68-3.34,11.16,11.16,0,0,1-3.2-8.06,11,11,0,0,1,3.22-7.94,10.44,10.44,0,0,1,7.74-3.3,9.87,9.87,0,0,1,4.73,1.13,10.63,10.63,0,0,1,3.71,3.39v-4Zm-10.88,2.12h0a8.08,8.08,0,0,0-7.28,4.35,8.8,8.8,0,0,0,0,8.67,8.51,8.51,0,0,0,3.08,3.25,8.23,8.23,0,0,0,4.17,1.16,8.56,8.56,0,0,0,4.25-1.16,8.22,8.22,0,0,0,3.09-3.1,9.06,9.06,0,0,0,1.06-4.41,8.62,8.62,0,0,0-2.41-6.23,8,8,0,0,0-6-2.52" transform="translate(-423.7 -491.54)" style="fill:#e21d38;fill-rule:evenodd"/></svg>