<svg xmlns="http://www.w3.org/2000/svg" viewBox="0 0 326.29 133.59"><title>pfizer-logo</title><path d="M99.21,242.66c3.85-14.08,19.88-17.43,34.65-17.84a205.87,205.87,0,0,1,25.67,1.26l-6.36,23.25a205.87,205.87,0,0,0-25.67-1.26c-14.76.41-30.8,3.76-34.65,17.84Z" transform="translate(-92.85 -189.2)" style="fill:#0190ff"/><path d="M234.79,231.19l-15,54.94h12.63L238,265.78h11c12.1,0,20.13-6.68,22.31-16,2-8.67-3-18.63-16.6-18.63H234.79Zm10.86,6.46h4.86c5.08,0,9.12,4.07,8.14,11.15-.9,6.56-8,10.5-14.25,10.5h-4.67Z" transform="translate(-92.85 -189.2)" style="fill:#2b01be"/><path d="M365.39,248.29c-10.62,0-18.28,9.13-20.11,18.26-1.77,8.77,3.26,20.43,17.11,20.43,9.84,0,14.79-4.33,14.79-4.33l-2.27-5.59a17.11,17.11,0,0,1-9.9,3.37c-5.77,0-9.38-4.55-8.58-11.8H380c1.68-4.27,2.61-20.33-14.59-20.33Zm0,6.06c6.59,0,5.09,8.7,5.09,8.7l-13.19,0s2.19-8.66,8.11-8.66Z" transform="translate(-92.85 -189.2)" style="fill:#2b01be"/><path d="M276.3,246.91,255.54,322.8h12.11l18.41-67.29h12.58l-8.37,30.62h12.11l10-36.72H287.73l3.71-13.58c2-7.42,5.35-12.82,10.17-12.64,5.33.2,2.62,3.7,1.89,6.37-1,3.69,1.72,7.41,6.5,7.41,10.38,0,12.94-19.06-6.5-19.06s-24.41,18.81-27.2,29Z" transform="translate(-92.85 -189.2)" style="fill:#2b01be"/><path d="M317,249.41l-1.67,6.1h15.35l-24.14,30.62h34.08l1.67-6.1H325l24.14-30.62Z" transform="translate(-92.85 -189.2)" style="fill:#2b01be"/><path d="M412.33,248.79c-7.9,0-12.55,8.15-12.55,8.15l2.06-7.54H389.72l-10,36.72h12.11s2.92-10.73,4.4-16.08c2.29-8.37,7-13.62,9.21-13.83,2.6-.25,2.35,6,7.41,6,7.68,0,9.34-13.43-.49-13.43Z" transform="translate(-92.85 -189.2)" style="fill:#2b01be"/><path d="M191.34,286.21c-43.44-2.71-93.91-25.11-92.13-43.55l-6,21.91c-1.82,18.81,45,41.15,91.76,44.89Z" transform="translate(-92.85 -189.2)" style="fill:#2b01be"/><path d="M207.13,256c-3.85,14.08-19.88,17.43-34.65,17.84a205.86,205.86,0,0,1-25.67-1.26l6.36-23.25a205.86,205.86,0,0,0,25.67,1.26c14.76-.41,30.8-3.76,34.65-17.84Z" transform="translate(-92.85 -189.2)" style="fill:#2b01be"/><path d="M115,212.45c43.44,2.71,93.91,25.11,92.13,43.55l6-21.91c1.82-18.81-45-41.15-91.76-44.89Z" transform="translate(-92.85 -189.2)" style="fill:#0190ff"/><path d="M99.21,242.66c3.85-14.08,19.88-17.43,34.65-17.84a205.87,205.87,0,0,1,25.67,1.26l-6.36,23.25a205.87,205.87,0,0,0-25.67-1.26c-14.76.41-30.8,3.76-34.65,17.84Z" transform="translate(-92.85 -189.2)" style="fill:#0190ff"/><path d="M191.34,286.21c-43.44-2.71-93.91-25.11-92.13-43.55l-6,21.91c-1.82,18.81,45,41.15,91.76,44.89Z" transform="translate(-92.85 -189.2)" style="fill:#2b01be"/><path d="M207.13,256c-3.85,14.08-19.88,17.43-34.65,17.84a205.86,205.86,0,0,1-25.67-1.26l6.36-23.25a205.86,205.86,0,0,0,25.67,1.26c14.76-.41,30.8-3.76,34.65-17.84Z" transform="translate(-92.85 -189.2)" style="fill:#2b01be"/><path d="M115,212.45c43.44,2.71,93.91,25.11,92.13,43.55l6-21.91c1.82-18.81-45-41.15-91.76-44.89Z" transform="translate(-92.85 -189.2)" style="fill:#0190ff"/></svg>